<svg width="24" height="24" viewBox="0 0 24 24" fill="none" xmlns="http://www.w3.org/2000/svg">
<g id="Component 1" clip-path="url(#clip0_200_1827)">
<g id="Group">
<g id="lock">
<path id="Vector" d="M18.8569 8H17.7141V5.71429C17.7141 2.51429 15.1998 0 11.9998 0C8.79979 0 6.28551 2.51429 6.28551 5.71429V8H5.14265C3.88551 8 2.85693 9.02857 2.85693 10.2857V21.7143C2.85693 22.9714 3.88551 24 5.14265 24H18.8569C20.1141 24 21.1426 22.9714 21.1426 21.7143V10.2857C21.1426 9.02857 20.1141 8 18.8569 8ZM11.9998 18.2857C10.7426 18.2857 9.71408 17.2571 9.71408 16C9.71408 14.7429 10.7426 13.7143 11.9998 13.7143C13.2569 13.7143 14.2855 14.7429 14.2855 16C14.2855 17.2571 13.2569 18.2857 11.9998 18.2857ZM15.5426 8H8.45693V5.71429C8.45693 3.77143 10.0569 2.17143 11.9998 2.17143C13.9426 2.17143 15.5426 3.77143 15.5426 5.71429V8Z" fill="#888888"/>
</g>
</g>
</g>
<defs>
<clipPath id="clip0_200_1827">
<rect width="24" height="24" fill="white"/>
</clipPath>
</defs>
</svg>
