<svg width="24" height="24" viewBox="0 0 24 24" fill="none" xmlns="http://www.w3.org/2000/svg">
<g id="ic:round-email">
<path id="Vector" d="M21.6 2.40039H2.4C1.08 2.40039 0.012 3.4804 0.012 4.8004L0 19.2005C0 20.5205 1.08 21.6005 2.4 21.6005H21.6C22.92 21.6005 24 20.5205 24 19.2005V4.8004C24 3.4804 22.92 2.40039 21.6 2.40039ZM21.12 7.50042L12.636 12.8044C12.252 13.0444 11.748 13.0444 11.364 12.8044L2.88 7.50042C2.75967 7.43287 2.6543 7.34161 2.57027 7.23216C2.48623 7.12271 2.42527 6.99735 2.39109 6.86366C2.35691 6.72997 2.3502 6.59074 2.37139 6.45438C2.39257 6.31803 2.4412 6.18739 2.51434 6.07037C2.58747 5.95336 2.68359 5.8524 2.79687 5.7736C2.91015 5.69481 3.03825 5.63982 3.17339 5.61197C3.30854 5.58411 3.44794 5.58397 3.58315 5.61155C3.71835 5.63912 3.84656 5.69385 3.96 5.77241L12 10.8004L20.04 5.77241C20.1534 5.69385 20.2817 5.63912 20.4169 5.61155C20.5521 5.58397 20.6915 5.58411 20.8266 5.61197C20.9618 5.63982 21.0898 5.69481 21.2031 5.7736C21.3164 5.8524 21.4125 5.95336 21.4857 6.07037C21.5588 6.18739 21.6074 6.31803 21.6286 6.45438C21.6498 6.59074 21.6431 6.72997 21.6089 6.86366C21.5747 6.99735 21.5138 7.12271 21.4297 7.23216C21.3457 7.34161 21.2403 7.43287 21.12 7.50042Z" fill="#888888"/>
</g>
</svg>
