<svg width="24" height="24" viewBox="0 0 24 24" fill="none" xmlns="http://www.w3.org/2000/svg">
<g id="Component 1" clip-path="url(#clip0_200_1829)">
<g id="Group">
<g id="visibility">
<path id="Vector" d="M12 3.81836C6.54545 3.81836 1.85455 7.20018 0 12.0002C1.85455 16.8002 6.54545 20.182 12 20.182C17.4545 20.182 22.1455 16.8002 24 12.0002C22.1455 7.20018 17.4545 3.81836 12 3.81836ZM12 17.4547C8.94545 17.4547 6.54545 15.0547 6.54545 12.0002C6.54545 8.94563 8.94545 6.54563 12 6.54563C15.0545 6.54563 17.4545 8.94563 17.4545 12.0002C17.4545 15.0547 15.0545 17.4547 12 17.4547ZM12 8.72745C10.1455 8.72745 8.72727 10.1456 8.72727 12.0002C8.72727 13.8547 10.1455 15.2729 12 15.2729C13.8545 15.2729 15.2727 13.8547 15.2727 12.0002C15.2727 10.1456 13.8545 8.72745 12 8.72745Z" fill="#888888"/>
</g>
</g>
</g>
<defs>
<clipPath id="clip0_200_1829">
<rect width="24" height="24" fill="white"/>
</clipPath>
</defs>
</svg>
