<svg width="297" height="109" viewBox="0 0 297 109" fill="none" xmlns="http://www.w3.org/2000/svg">
<path d="M93.8797 51.0842C97.467 47.5635 104.086 41.8168 98.0738 37.0304C92.3503 32.4712 86.2952 40.3831 82.6181 44.0631C80.2922 46.3904 78.0647 48.8163 75.9213 51.3131C73.6577 53.9503 71.8141 54.1676 69.8719 50.964C66.5221 45.436 66.9204 38.8682 67.1232 32.6769C67.352 25.7224 67.5866 18.7577 67.9052 11.809C68.1471 6.51705 66.3657 -1.89877 58.9173 1.23671C54.4871 3.10206 55.0577 9.8379 54.7999 13.7221C54.2916 21.3747 54.3046 29.1547 53.4835 36.7769C51.1938 30.2163 50.2553 22.8447 48.571 16.0842C47.7064 12.6099 46.7998 9.14563 45.8077 5.70602C45.0054 2.91813 44.1234 0.622645 40.9054 0.0896872C38.1913 -0.36072 34.9429 0.899262 33.8263 3.55536C32.2723 7.24987 34.2622 10.7706 35.0486 14.3521C36.7387 22.0481 38.4086 29.7485 40.1639 37.4301C36.8242 31.1418 33.1891 25.0171 29.8566 18.7244C27.4627 14.1175 21.7001 7.23538 16.7934 13.8539C12.8961 19.1111 20.0635 28.0106 22.4879 32.7189C24.1968 36.0397 25.8985 39.3635 27.5988 42.6887C28.1969 43.8574 31.0399 47.7952 30.5344 49.3174C28.8617 48.8626 27.3468 47.41 25.871 46.544C23.8377 45.3506 21.7594 44.234 19.6841 43.1174C17.3553 41.8632 14.9425 40.6742 12.7339 39.2158C10.8685 37.9833 9.02347 36.4699 6.7077 36.2555C2.58886 35.8761 -0.7233 40.273 0.136965 44.1485C1.0204 48.1226 6.66281 50.5759 9.76642 52.657C13.7882 55.3522 17.7463 58.269 21.9593 60.6558C26.265 63.0946 27.0789 66.5299 29.2107 70.8022C31.3759 75.1412 33.7177 79.4092 35.8263 83.7714C37.4006 87.0285 34.5678 92.2611 34.0797 95.6094C32.827 104.206 43.3978 104.707 49.23 106.402C52.9911 107.495 58.4582 110.196 62.3265 108.196C65.2144 106.705 66.0891 101.754 67.0276 99.0186C68.4193 94.9693 70.1906 91.0648 71.8561 87.1212C73.6316 82.9155 74.9944 78.0609 77.4753 74.223C80.0489 70.2447 83.6376 67.0151 86.0968 62.9556C88.6703 58.7079 90.2663 54.6339 93.8783 51.0871" fill="black"/>
<path d="M139.548 82.3527C137.004 82.3527 134.714 82.0058 132.678 81.3118C130.689 80.5717 128.908 79.6001 127.335 78.3974L126.919 81.6588H116.579V44.1868H127.751V70.6947C128.584 71.5737 129.717 72.3371 131.152 72.9847C132.586 73.6324 134.066 73.9562 135.593 73.9562C137.582 73.9562 139.039 73.4704 139.964 72.499C140.936 71.5275 141.422 69.9777 141.422 67.8496V44.1868H152.663V68.8211C152.663 73.1235 151.46 76.4543 149.055 78.8137C146.696 81.173 143.527 82.3527 139.548 82.3527ZM120.881 39.6763L121.437 32.1124H133.372V26.6998H141.144V32.1124H144.822V26.6998H152.594V39.6763H120.881ZM175.424 82.3527C172.232 82.3527 169.202 82.0751 166.334 81.52C163.465 80.9186 161.083 80.2015 159.186 79.3688V59.5226H175.84L176.326 67.2251H170.081V73.2623C170.867 73.4936 171.7 73.6786 172.579 73.8174C173.458 73.9099 174.383 73.9562 175.355 73.9562C178.685 73.9562 180.999 73.1466 182.294 71.5275C183.636 69.862 184.306 67.0632 184.306 63.131C184.306 60.2164 183.913 57.9497 183.127 56.3304C182.386 54.6651 181.16 53.5085 179.449 52.8608C177.737 52.2132 175.447 51.8894 172.579 51.8894C170.59 51.8894 168.439 52.0513 166.125 52.3751C163.859 52.6989 161.684 53.1847 159.603 53.8323V45.7828C161.869 45.0426 164.414 44.4874 167.236 44.1174C170.058 43.701 172.741 43.4928 175.285 43.4928C182.317 43.4928 187.429 45.1583 190.621 48.4891C193.813 51.8199 195.409 56.7006 195.409 63.131C195.409 69.3763 193.836 74.1412 190.69 77.4258C187.545 80.7104 182.456 82.3527 175.424 82.3527ZM210.937 81.6588C208.3 81.6588 206.334 81.0111 205.039 79.7158C203.79 78.4205 203.165 76.57 203.165 74.1644V43.2152C203.165 40.5783 202.61 38.5197 201.5 37.0393C200.436 35.559 198.794 34.4718 196.573 33.7779V26.561H220.305V34.4718H210.59C213.135 36.1835 214.407 38.9592 214.407 42.7989V71.2499C214.407 72.9616 215.24 73.8174 216.906 73.8174H219.472V81.6588H210.937ZM241.974 82.3527C236.33 82.3527 231.82 81.0343 228.443 78.3974C225.112 75.7141 223.446 71.6431 223.446 66.1842V44.1868H234.619V66.5312C234.619 69.0756 235.221 70.9492 236.422 72.152C237.625 73.3548 239.477 73.9562 241.974 73.9562C244.426 73.9562 246.253 73.3548 247.456 72.152C248.659 70.9492 249.26 69.0756 249.26 66.5312V33.0839H260.502V66.1842C260.502 71.6431 258.814 75.7141 255.437 78.3974C252.105 81.0343 247.618 82.3527 241.974 82.3527ZM280.742 82.3527C278.013 82.3527 275.399 82.1446 272.901 81.7282C270.448 81.3581 268.483 80.8724 267.002 80.271V71.5275C268.714 72.2676 270.634 72.869 272.762 73.3316C274.889 73.748 276.833 73.9562 278.591 73.9562C281.228 73.9562 283.101 73.7712 284.212 73.4011C285.322 73.0309 285.877 72.2908 285.877 71.1805C285.877 70.2553 285.553 69.5382 284.905 69.0294C284.258 68.5204 283.24 68.0347 281.852 67.572C280.51 67.0632 278.753 66.4387 276.579 65.6984C273.293 64.4957 270.773 63.131 269.014 61.6043C267.257 60.0314 266.378 57.7878 266.378 54.8732C266.378 51.4961 267.696 48.7667 270.333 46.6849C273.016 44.5569 277.064 43.4928 282.477 43.4928C284.743 43.4928 287.011 43.6779 289.277 44.048C291.544 44.3718 293.371 44.7419 294.759 45.1583V53.8323C293.279 53.1847 291.567 52.6989 289.625 52.3751C287.681 52.0513 285.969 51.8894 284.489 51.8894C282.5 51.8894 280.835 52.0975 279.493 52.5139C278.152 52.8839 277.48 53.6704 277.48 54.8732C277.48 55.6597 277.828 56.3073 278.521 56.8162C279.262 57.2788 280.302 57.7183 281.644 58.1347C283.032 58.5511 284.674 59.1062 286.571 59.8001C289.207 60.7716 291.29 61.7431 292.816 62.7146C294.343 63.686 295.407 64.8427 296.008 66.1842C296.656 67.5258 296.98 69.2375 296.98 71.3192C296.98 74.8814 295.546 77.6109 292.678 79.5076C289.856 81.4044 285.877 82.3527 280.742 82.3527Z" fill="black"/>
</svg>
