<svg width="17" height="16" viewBox="0 0 17 16" fill="none" xmlns="http://www.w3.org/2000/svg">
<path d="M11.4925 10.0571H10.7611L10.4869 9.78286C11.4011 8.77714 11.9497 7.40572 11.9497 5.94286C11.9497 2.65143 9.29825 0 6.00682 0C2.71539 0 0.0639648 2.65143 0.0639648 5.94286C0.0639648 9.23429 2.71539 11.8857 6.00682 11.8857C7.46968 11.8857 8.84111 11.3371 9.84682 10.4229L10.1211 10.6971V11.4285L14.6925 16L16.064 14.6286L11.4925 10.0571ZM6.00682 10.0571C3.72111 10.0571 1.89254 8.22857 1.89254 5.94286C1.89254 3.65714 3.72111 1.82857 6.00682 1.82857C8.29254 1.82857 10.1211 3.65714 10.1211 5.94286C10.1211 8.22857 8.29254 10.0571 6.00682 10.0571Z" fill="#9D9D9D"/>
</svg>
