<svg width="12" height="12" viewBox="0 0 12 12" fill="none" xmlns="http://www.w3.org/2000/svg">
<g id="ri:calendar-line" clip-path="url(#clip0_223_1912)">
<path id="Vector" d="M4.0845 -0.320801V0.846199H7.5855V-0.320801H8.7525V0.846199H11.0865C11.2413 0.846199 11.3897 0.907675 11.4991 1.0171C11.6085 1.12653 11.67 1.27495 11.67 1.4297V10.7657C11.67 10.9205 11.6085 11.0689 11.4991 11.1783C11.3897 11.2877 11.2413 11.3492 11.0865 11.3492H0.5835C0.428746 11.3492 0.280331 11.2877 0.170903 11.1783C0.0614757 11.0689 0 10.9205 0 10.7657V1.4297C0 1.27495 0.0614757 1.12653 0.170903 1.0171C0.280331 0.907675 0.428746 0.846199 0.5835 0.846199H2.9175V-0.320801H4.0845ZM10.503 5.5142H1.167V10.1822H10.503V5.5142ZM2.9175 2.0132H1.167V4.3472H10.503V2.0132H8.7525V3.1802H7.5855V2.0132H4.0845V3.1802H2.9175V2.0132Z" fill="#9D9D9D"/>
</g>
<defs>
<clipPath id="clip0_223_1912">
<rect width="11.67" height="11.67" fill="white" transform="translate(0 0.165039)"/>
</clipPath>
</defs>
</svg>
