<svg width="29" height="29" viewBox="0 0 29 29" fill="none" xmlns="http://www.w3.org/2000/svg">
<path d="M21.9999 10.0795C21.5199 9.53288 21.0266 8.98621 20.5066 8.46621L20.1199 8.10621L20.3066 7.94621C20.9586 7.38649 21.4233 6.64023 21.6378 5.80813C21.8524 4.97603 21.8066 4.09812 21.5066 3.29288C21.0718 2.38484 20.3833 1.62212 19.5245 1.09685C18.6656 0.571588 17.673 0.306246 16.6666 0.33288V2.99955C17.141 2.99294 17.6085 3.11302 18.021 3.3474C18.4335 3.58178 18.7761 3.92197 19.0132 4.33288C19.2399 4.86621 19.0132 5.45288 18.3866 6.07955C18.2932 6.18621 18.1866 6.25288 18.0932 6.34621C14.0932 3.13288 9.70656 1.31955 7.55989 3.46621C7.33503 3.69608 7.15026 3.96198 7.01323 4.25288V4.38621L6.77323 5.09288L0.893228 22.5595C0.670815 23.2178 0.608423 23.9195 0.711221 24.6066C0.814019 25.2937 1.07905 25.9465 1.48436 26.5108C1.88966 27.0751 2.42359 27.5347 3.0419 27.8516C3.66021 28.1684 4.34512 28.3334 5.03989 28.3329C5.49354 28.3285 5.94361 28.252 6.37323 28.1062L24.6666 22.0395C24.8914 21.9559 25.0894 21.8131 25.2399 21.6262L25.5199 21.3862C27.4266 19.4662 26.1999 15.7729 23.6399 12.1862C25.16 11.2991 26.9102 10.8859 28.6666 10.9995V8.33288C26.3164 8.20357 23.9848 8.81445 21.9999 10.0795ZM5.59989 25.5729C5.29724 25.6731 4.97269 25.6871 4.6625 25.6136C4.3523 25.54 4.06865 25.3816 3.84322 25.1562C3.61779 24.9308 3.45945 24.6471 3.38588 24.3369C3.3123 24.0267 3.32639 23.7022 3.42656 23.3995L5.23989 17.9329C6.534 20.4007 8.5225 22.4356 10.9599 23.7862L5.59989 25.5729ZM14.9332 22.4662C12.9182 21.9326 11.08 20.8758 9.60487 19.403C8.12974 17.9302 7.07008 16.0937 6.53323 14.0795L7.86656 10.0795L7.94656 10.1995C8.09323 10.4929 8.27989 10.7995 8.46656 11.1062C8.65323 11.4129 8.67989 11.4929 8.81323 11.6929C8.94656 11.8929 9.25323 12.3329 9.49323 12.6662C9.73323 12.9995 9.74656 13.0395 9.89323 13.2262C10.0399 13.4129 10.4666 13.9595 10.7732 14.3195L11.1599 14.7862C11.6132 15.3062 12.0932 15.8129 12.5999 16.3329C13.1066 16.8529 13.5066 17.1862 13.9332 17.6662L14.3732 18.0395L15.4132 18.8795L15.9066 19.2529C16.2799 19.5195 16.6399 19.7862 17.0132 20.0262L17.4266 20.2929C17.9066 20.5862 18.3866 20.8662 18.8532 21.1062H18.9199L14.9332 22.4662ZM23.6132 19.4929H23.5332C22.6132 19.9995 18.7866 18.7329 14.4799 14.4129C14.0266 13.9595 13.5999 13.5195 13.2132 13.0795L12.8266 12.6129L12.1199 11.7595L11.7332 11.2262C11.5599 10.9729 11.3732 10.7329 11.2132 10.4929L10.8666 9.93288L10.4799 9.30621C10.3732 9.11955 10.2932 8.94621 10.1999 8.77288C10.1066 8.59955 9.99989 8.42621 9.91989 8.23955C9.84838 8.08332 9.78605 7.92304 9.73323 7.75955C9.66656 7.58621 9.58656 7.41288 9.53323 7.25288C9.47989 7.09288 9.46656 6.99955 9.42656 6.83955C9.38656 6.67955 9.35989 6.54621 9.33323 6.41288C9.32657 6.29742 9.32657 6.18167 9.33323 6.06621C9.32038 5.95993 9.32038 5.85249 9.33323 5.74621L9.47989 5.33288C9.95989 4.85288 12.4532 5.33288 15.7866 7.86621C15.2215 8.12123 14.6175 8.279 13.9999 8.33288V10.9995C15.4162 10.9181 16.7903 10.4875 17.9999 9.74621L18.6399 10.3595C19.1999 10.9195 19.7199 11.4929 20.2132 12.0662C19.45 13.4464 19.1685 15.0415 19.4132 16.5995L22.0799 16.0795C22.0013 15.5849 22.0013 15.0809 22.0799 14.5862C22.4868 15.2033 22.8478 15.8495 23.1599 16.5195C23.9066 18.2795 23.8532 19.2662 23.6132 19.4929Z" fill="white"/>
</svg>
