<svg width="32" height="32" viewBox="0 0 32 32" fill="none" xmlns="http://www.w3.org/2000/svg">
<g id="learning 1">
<g id="Icon">
<path id="Vector" fill-rule="evenodd" clip-rule="evenodd" d="M2.84517 13.8081C2.0905 13.3908 1.6665 12.6601 1.6665 11.8961C1.6665 11.1308 2.0905 10.4001 2.84517 9.98409L13.9305 3.85743C15.1892 3.16276 16.8105 3.16276 18.0692 3.85743L29.1545 9.98409C29.9092 10.4001 30.3332 11.1308 30.3332 11.8961C30.3332 12.6601 29.9092 13.3908 29.1545 13.8081L18.0692 19.9334C16.8105 20.6294 15.1892 20.6294 13.9305 19.9334L2.84517 13.8081ZM3.81184 12.0574L14.8972 18.1828C15.5678 18.5534 16.4318 18.5534 17.1025 18.1828L28.1878 12.0574C28.2612 12.0174 28.3332 11.9694 28.3332 11.8961C28.3332 11.8214 28.2612 11.7748 28.1878 11.7334L17.1025 5.60809C16.4318 5.23743 15.5678 5.23743 14.8972 5.60809L3.81184 11.7334C3.7385 11.7748 3.6665 11.8214 3.6665 11.8961C3.6665 11.9694 3.7385 12.0174 3.81184 12.0574Z" fill="#0560FD"/>
<path id="Vector_2" fill-rule="evenodd" clip-rule="evenodd" d="M24.3332 15C24.3332 14.448 24.7812 14 25.3332 14C25.8852 14 26.3332 14.448 26.3332 15V21C26.3332 23.7613 24.0945 26 21.3332 26H10.6665C7.90517 26 5.6665 23.7613 5.6665 21V15C5.6665 14.448 6.1145 14 6.6665 14C7.2185 14 7.6665 14.448 7.6665 15V21C7.6665 22.6573 9.00917 24 10.6665 24H21.3332C22.9905 24 24.3332 22.6573 24.3332 21V15Z" fill="#0560FD"/>
<path id="Vector_3" fill-rule="evenodd" clip-rule="evenodd" d="M15.293 13.0403C14.9023 12.651 14.9023 12.0163 15.293 11.627C15.6823 11.2363 16.317 11.2363 16.7063 11.627L21.373 16.2937C21.561 16.4803 21.6663 16.735 21.6663 17.0003V27.667C21.6663 28.219 21.2183 28.667 20.6663 28.667C20.1143 28.667 19.6663 28.219 19.6663 27.667V17.415L15.293 13.0403Z" fill="#0560FD"/>
</g>
</g>
</svg>
