<svg width="14" height="14" viewBox="0 0 14 14" fill="none" xmlns="http://www.w3.org/2000/svg">
<g id="akar-icons:location">
<g id="Group">
<path id="Vector" d="M7 7.58301C7.9665 7.58301 8.75 6.79951 8.75 5.83301C8.75 4.86651 7.9665 4.08301 7 4.08301C6.0335 4.08301 5.25 4.86651 5.25 5.83301C5.25 6.79951 6.0335 7.58301 7 7.58301Z" stroke="#9D9D9D" stroke-width="1.16667" stroke-linecap="round" stroke-linejoin="round"/>
<path id="Vector_2" d="M7.00016 1.1665C5.76249 1.1665 4.5755 1.65817 3.70033 2.53334C2.82516 3.40851 2.3335 4.59549 2.3335 5.83317C2.3335 6.93684 2.568 7.659 3.2085 8.45817L7.00016 12.8332L10.7918 8.45817C11.4323 7.659 11.6668 6.93684 11.6668 5.83317C11.6668 4.59549 11.1752 3.40851 10.3 2.53334C9.42482 1.65817 8.23784 1.1665 7.00016 1.1665Z" stroke="#9D9D9D" stroke-width="1.16667" stroke-linecap="round" stroke-linejoin="round"/>
</g>
</g>
</svg>
