<svg width="177" height="65" viewBox="0 0 177 65" fill="none" xmlns="http://www.w3.org/2000/svg">
<path d="M55.9522 30.4462C58.0903 28.3478 62.0349 24.9228 58.452 22.0701C55.0407 19.3528 51.4319 24.0683 49.2403 26.2616C47.8541 27.6487 46.5265 29.0945 45.2491 30.5826C43.8999 32.1544 42.8011 32.2838 41.6436 30.3745C39.6472 27.0799 39.8845 23.1654 40.0054 19.4754C40.1417 15.3305 40.2816 11.1796 40.4715 7.03814C40.6156 3.88416 39.5539 -1.13166 35.1147 0.737076C32.4743 1.84883 32.8144 5.86338 32.6607 8.17838C32.3578 12.7393 32.3655 17.3762 31.8761 21.919C30.5115 18.0089 29.9521 13.6154 28.9483 9.58619C28.433 7.51547 27.8926 5.45079 27.3014 3.40079C26.8232 1.7392 26.2975 0.371096 24.3796 0.0534535C22.762 -0.214989 20.826 0.53596 20.1605 2.11899C19.2343 4.32092 20.4203 6.41926 20.889 8.55385C21.8963 13.1407 22.8915 17.7301 23.9376 22.3083C21.9472 18.5605 19.7807 14.9102 17.7945 11.1597C16.3677 8.41402 12.9332 4.31228 10.0088 8.25692C7.68607 11.3902 11.9578 16.6943 13.4028 19.5004C14.4213 21.4797 15.4355 23.4606 16.4489 25.4424C16.8054 26.139 18.4997 28.4859 18.1985 29.3931C17.2015 29.1221 16.2987 28.2563 15.4191 27.7402C14.2072 27.0289 12.9686 26.3634 11.7317 25.6979C10.3437 24.9504 8.90571 24.2418 7.5894 23.3726C6.47764 22.638 5.37798 21.736 3.99779 21.6083C1.54296 21.3821 -0.431086 24.0027 0.0816308 26.3125C0.608158 28.681 3.97103 30.1432 5.82078 31.3836C8.21778 32.9899 10.5768 34.7283 13.0877 36.1508C15.6539 37.6044 16.139 39.6518 17.4096 42.1981C18.7 44.7841 20.0957 47.3279 21.3525 49.9277C22.2907 51.8689 20.6024 54.9875 20.3115 56.9832C19.5649 62.1069 25.8651 62.4055 29.341 63.4154C31.5826 64.0671 34.8411 65.6769 37.1466 64.4849C38.8677 63.5958 39.3891 60.6455 39.9484 59.015C40.7779 56.6016 41.8335 54.2746 42.8262 51.9242C43.8844 49.4176 44.6966 46.5243 46.1752 44.2369C47.7091 41.8658 49.848 39.9409 51.3136 37.5215C52.8475 34.9898 53.7987 32.5618 55.9514 30.4479" fill="#0560FD"/>
<path d="M83.1707 49.0819C81.6542 49.0819 80.2894 48.8751 79.0763 48.4615C77.8907 48.0204 76.8291 47.4414 75.8917 46.7245L75.6436 48.6683H69.4812V26.335H76.1398V42.1337C76.6361 42.6576 77.3116 43.1126 78.1664 43.4986C79.0211 43.8846 79.9034 44.0776 80.8133 44.0776C81.9989 44.0776 82.8674 43.788 83.4188 43.2091C83.9978 42.63 84.2873 41.7064 84.2873 40.438V26.335H90.9873V41.0171C90.9873 43.5813 90.2705 45.5664 88.8367 46.9727C87.4306 48.3788 85.5419 49.0819 83.1707 49.0819ZM72.0454 23.6467L72.3763 19.1387H79.4898V15.9128H84.1219V19.1387H86.3139V15.9128H90.946V23.6467H72.0454ZM104.553 49.0819C102.65 49.0819 100.844 48.9164 99.1348 48.5856C97.4254 48.2271 96.0054 47.7998 94.875 47.3035V35.4751H104.801L105.09 40.0658H101.368V43.664C101.837 43.8019 102.333 43.9121 102.857 43.9949C103.381 44.05 103.932 44.0776 104.511 44.0776C106.497 44.0776 107.875 43.595 108.647 42.63C109.447 41.6374 109.847 39.9694 109.847 37.6257C109.847 35.8887 109.612 34.5377 109.143 33.5726C108.702 32.5801 107.972 31.8908 106.951 31.5047C105.931 31.1188 104.567 30.9258 102.857 30.9258C101.671 30.9258 100.389 31.0223 99.0108 31.2152C97.6597 31.4082 96.3639 31.6978 95.1232 32.0838V27.2862C96.4741 26.8451 97.9906 26.5142 99.6725 26.2937C101.354 26.0455 102.954 25.9214 104.47 25.9214C108.661 25.9214 111.708 26.914 113.61 28.8992C115.513 30.8844 116.464 33.7932 116.464 37.6257C116.464 41.3479 115.526 44.1879 113.652 46.1455C111.777 48.1031 108.744 49.0819 104.553 49.0819ZM125.719 48.6683C124.147 48.6683 122.975 48.2823 122.203 47.5103C121.459 46.7383 121.087 45.6354 121.087 44.2016V25.756C121.087 24.1844 120.756 22.9575 120.094 22.0751C119.46 21.1928 118.481 20.5449 117.158 20.1313V15.8301H131.302V20.5449H125.512C127.028 21.5651 127.787 23.2194 127.787 25.5078V42.4646C127.787 43.4848 128.283 43.9949 129.276 43.9949H130.806V48.6683H125.719ZM144.216 49.0819C140.853 49.0819 138.164 48.2961 136.152 46.7245C134.167 45.1253 133.174 42.699 133.174 39.4455V26.335H139.833V39.6523C139.833 41.1687 140.191 42.2854 140.908 43.0022C141.625 43.7192 142.728 44.0776 144.216 44.0776C145.678 44.0776 146.767 43.7192 147.484 43.0022C148.201 42.2854 148.559 41.1687 148.559 39.6523V19.7177H155.259V39.4455C155.259 42.699 154.253 45.1253 152.24 46.7245C150.255 48.2961 147.58 49.0819 144.216 49.0819ZM167.322 49.0819C165.696 49.0819 164.138 48.9578 162.649 48.7097C161.187 48.4891 160.016 48.1996 159.133 47.8412V42.63C160.153 43.0712 161.298 43.4296 162.566 43.7053C163.834 43.9535 164.992 44.0776 166.04 44.0776C167.612 44.0776 168.728 43.9673 169.39 43.7467C170.052 43.5261 170.383 43.085 170.383 42.4233C170.383 41.8718 170.19 41.4444 169.803 41.1412C169.418 40.8379 168.811 40.5484 167.984 40.2726C167.184 39.9693 166.136 39.5971 164.841 39.1559C162.883 38.4391 161.381 37.6257 160.332 36.7159C159.285 35.7784 158.761 34.4412 158.761 32.7041C158.761 30.6914 159.547 29.0646 161.118 27.8239C162.718 26.5556 165.13 25.9214 168.356 25.9214C169.707 25.9214 171.058 26.0317 172.409 26.2523C173.76 26.4453 174.849 26.6659 175.676 26.914V32.0838C174.794 31.6978 173.774 31.4082 172.616 31.2152C171.458 31.0223 170.438 30.9258 169.555 30.9258C168.37 30.9258 167.378 31.0498 166.578 31.298C165.778 31.5185 165.378 31.9873 165.378 32.7041C165.378 33.1729 165.585 33.5588 165.999 33.8622C166.44 34.1379 167.06 34.3998 167.86 34.648C168.687 34.8961 169.666 35.227 170.797 35.6405C172.368 36.2195 173.609 36.7986 174.519 37.3776C175.428 37.9566 176.063 38.6459 176.421 39.4455C176.807 40.2451 177 41.2652 177 42.5059C177 44.629 176.145 46.2557 174.436 47.3862C172.754 48.5167 170.383 49.0819 167.322 49.0819Z" fill="#0560FD"/>
</svg>
