<svg width="733" height="114" viewBox="0 0 733 114" fill="none" xmlns="http://www.w3.org/2000/svg">
<g clip-path="url(#clip0_223_1659)">
<path d="M77.3394 9.35787C82.1344 1.05269 92.7542 -1.79289 101.059 3.00212L43.6819 102.383C38.8869 110.688 28.2671 113.534 19.9619 108.739L77.3394 9.35787Z" fill="black"/>
<path d="M101.077 3.02002H83.3765V90.3687C83.3878 90.8111 83.4097 91.3351 83.4354 91.8145C83.461 92.7921 83.6309 93.7623 83.7857 94.7317C83.8521 95.2186 83.9925 95.6912 84.1065 96.1668C84.2326 96.6425 84.3428 97.1219 84.4976 97.5832C84.6561 98.0445 84.826 98.505 84.9959 98.9625C85.0842 99.1912 85.1688 99.42 85.2616 99.645L85.5712 100.309C88.8024 107.42 95.6477 112.477 103.006 113.65C103.467 113.716 103.921 113.786 104.378 113.853C104.836 113.908 105.293 113.923 105.751 113.949L106.436 113.982L106.78 113.996H106.949L107.067 114.004H154.485V96.3035H106.968L106.923 96.2959L106.839 96.2884L106.665 96.2771C106.551 96.2665 106.429 96.2846 106.318 96.2627C106.204 96.2371 106.093 96.2182 105.976 96.2038C105.739 96.2038 105.532 96.0891 105.304 96.0559C105.186 96.0453 105.09 95.9713 104.979 95.9381C104.873 95.8935 104.754 95.8717 104.651 95.8203C104.548 95.7644 104.445 95.7131 104.337 95.6618L104.175 95.5953L104.028 95.4957C103.928 95.433 103.825 95.3704 103.722 95.3145C103.622 95.2518 103.533 95.1635 103.437 95.0971C103.231 94.9755 103.077 94.7837 102.885 94.6358C102.781 94.5693 102.722 94.4553 102.637 94.3708C102.56 94.2787 102.461 94.2009 102.394 94.1013C102.269 93.8914 102.08 93.7291 101.981 93.5041C101.921 93.4006 101.852 93.301 101.786 93.1976C101.741 93.0836 101.69 92.9764 101.638 92.8654L101.549 92.7068C101.527 92.6517 101.516 92.5928 101.494 92.5339C101.457 92.4192 101.413 92.309 101.365 92.198C101.324 92.084 101.313 91.9587 101.28 91.8477C101.258 91.7299 101.195 91.6189 101.195 91.4974C101.177 91.2535 101.096 91.018 101.114 90.7635C101.114 90.6307 101.096 90.5386 101.084 90.3687V3.02002H101.077Z" fill="black"/>
<path d="M91.9998 3.02002H91.4766V90.3689L91.5241 91.3315C91.5317 91.977 91.657 92.6112 91.7491 93.2454C91.7861 93.5662 91.8895 93.8727 91.9635 94.186C92.0481 94.4956 92.1145 94.8097 92.2142 95.1154L92.5456 96.0191C92.6015 96.1701 92.649 96.3219 92.7155 96.4653L92.9223 96.8971L93.3391 97.7601L93.8298 98.5754C94.1393 99.1356 94.5523 99.6158 94.9215 100.131C95.1132 100.383 95.342 100.604 95.5481 100.843C95.7693 101.072 95.9611 101.324 96.2011 101.526C96.6662 101.946 97.1162 102.389 97.6326 102.747C97.887 102.932 98.1301 103.13 98.3883 103.3L99.1848 103.783L99.5872 104.023L100.004 104.226L100.841 104.628C101.125 104.753 101.416 104.845 101.704 104.956C101.999 105.052 102.276 105.185 102.578 105.252C103.173 105.391 103.755 105.591 104.364 105.657L105.264 105.794C105.562 105.834 105.865 105.831 106.164 105.853C106.462 105.867 106.772 105.886 107.064 105.893H154.482V105.369H107.064C106.772 105.362 106.485 105.344 106.193 105.332C105.902 105.31 105.607 105.314 105.319 105.273L104.448 105.141C103.862 105.078 103.302 104.882 102.726 104.75C102.434 104.687 102.165 104.558 101.882 104.462C101.604 104.355 101.317 104.266 101.048 104.145L100.24 103.758L99.834 103.562L99.4505 103.329L98.6797 102.861C98.4291 102.695 98.1928 102.504 97.9497 102.326C97.4514 101.983 97.0165 101.555 96.5628 101.15C96.3302 100.954 96.1423 100.711 95.9316 100.489C95.7331 100.261 95.5111 100.047 95.3307 99.8038C94.9728 99.3055 94.5712 98.8412 94.2722 98.3021L93.7966 97.5132L93.3942 96.6797L93.1949 96.263C93.136 96.1225 93.0846 95.9753 93.0325 95.8273L92.7155 94.9569C92.6158 94.6655 92.5531 94.3597 92.4724 94.0607C92.4059 93.758 92.3025 93.4635 92.2693 93.1533C92.1809 92.5372 92.0556 91.9249 92.0518 91.3021L92.0073 90.3689V3.02002H91.9998Z" fill="#FFDD00"/>
<path d="M92.9771 3.02006H92.4531V90.3683L92.4977 91.2758C92.5014 91.8812 92.623 92.4784 92.7075 93.0726C92.7377 93.3746 92.8404 93.6584 92.9069 93.9536C92.9884 94.2413 93.0473 94.5402 93.1432 94.8241L93.4527 95.6689C93.5048 95.8093 93.5524 95.949 93.6112 96.0894L93.803 96.4911L94.1941 97.2989L94.6554 98.0667C94.943 98.5899 95.3379 99.0436 95.6806 99.523C95.858 99.7593 96.0755 99.9662 96.2672 100.191C96.4703 100.405 96.647 100.641 96.8795 100.829C97.3181 101.224 97.7349 101.641 98.2218 101.972C98.4581 102.146 98.6869 102.33 98.93 102.492L99.6789 102.946L100.051 103.171L100.446 103.359L101.228 103.739C101.49 103.857 101.77 103.942 102.036 104.045C102.308 104.134 102.57 104.263 102.854 104.322C103.411 104.451 103.957 104.642 104.526 104.702L105.366 104.831C105.651 104.871 105.935 104.867 106.215 104.886C106.499 104.897 106.779 104.92 107.063 104.923H154.481V104.399H107.063C106.783 104.396 106.517 104.374 106.244 104.359C105.972 104.34 105.694 104.344 105.426 104.307L104.614 104.182C104.065 104.126 103.541 103.938 103.002 103.817C102.729 103.761 102.482 103.636 102.213 103.547C101.954 103.447 101.686 103.367 101.435 103.253L100.678 102.887L100.299 102.706L99.9409 102.489L99.2176 102.05C98.9821 101.895 98.7639 101.714 98.5359 101.548C98.0671 101.231 97.6654 100.825 97.2411 100.446C97.0229 100.264 96.85 100.033 96.6545 99.8295C96.4665 99.6151 96.2597 99.4166 96.0868 99.1878C95.7546 98.719 95.3748 98.2879 95.0978 97.7821L94.6516 97.0445L94.2756 96.2631L94.0876 95.8758C94.0318 95.7391 93.988 95.6062 93.9359 95.4658L93.6377 94.6542C93.5448 94.3817 93.4859 94.0941 93.4127 93.814C93.3463 93.5331 93.2504 93.2568 93.2209 92.9691C93.1394 92.3939 93.0216 91.8216 93.0178 91.2357L92.9733 90.3615V3.0127L92.9771 3.02006Z" fill="#FFDD00"/>
<path d="M85.1285 3.02002H84.1357V90.369C84.1471 90.8038 84.169 91.3051 84.1954 91.7664C84.2173 92.7109 84.3834 93.6516 84.5306 94.5885C84.5933 95.0565 84.7299 95.5178 84.8409 95.9753C84.9624 96.4321 85.0696 96.8972 85.2169 97.3433L85.7 98.6789C85.7808 98.9001 85.8623 99.1251 85.9545 99.3425L86.2572 99.9804C89.385 106.874 96.0129 111.772 103.135 112.905C103.578 112.971 104.024 113.038 104.463 113.104C104.906 113.159 105.348 113.167 105.79 113.196L106.455 113.226L106.782 113.241H106.949L107.067 113.244H154.485V112.255H106.952L106.794 112.248L106.48 112.237L105.846 112.208C105.426 112.181 104.998 112.171 104.573 112.119C104.153 112.056 103.729 111.993 103.304 111.931C96.4961 110.847 90.1521 106.162 87.1609 99.575L86.8733 98.9627C86.7842 98.7559 86.7109 98.5422 86.6294 98.3316L86.1651 97.0557C86.0247 96.6239 85.9212 96.1814 85.8035 95.7466C85.7 95.3034 85.5672 94.8686 85.5083 94.4186C85.3678 93.5225 85.2055 92.6255 85.1874 91.7188L85.1323 90.3795V3.03109L85.1285 3.02002Z" fill="white"/>
<path d="M100.321 3.02007H99.3291V90.3683L99.3623 90.8666C99.351 91.1912 99.4393 91.5007 99.4695 91.8148C99.4725 91.9771 99.5428 92.1206 99.5722 92.2753C99.6205 92.4271 99.6386 92.5856 99.6907 92.7328C99.7534 92.8808 99.8085 93.0243 99.8598 93.1715C99.8863 93.2455 99.9082 93.3232 99.9338 93.3964L100.041 93.6033C100.111 93.7437 100.178 93.8872 100.24 94.0314L100.487 94.4292C100.628 94.7139 100.856 94.9388 101.026 95.2008C101.114 95.3299 101.24 95.4288 101.336 95.5473C101.446 95.6576 101.531 95.798 101.66 95.8901C101.9 96.0894 102.107 96.3257 102.372 96.4911C102.501 96.5801 102.612 96.6866 102.745 96.7719C102.881 96.8451 103.01 96.9229 103.143 97.0044L103.335 97.1298L103.545 97.2219C103.685 97.2845 103.818 97.351 103.954 97.4212C104.091 97.4838 104.242 97.5201 104.382 97.5759C104.526 97.6197 104.655 97.705 104.81 97.7232C105.105 97.7753 105.382 97.9044 105.688 97.9187C105.835 97.9376 105.983 97.9632 106.131 97.9927C106.278 98.0146 106.429 98.0033 106.581 98.0146L106.806 98.0297L106.916 98.0365L106.972 98.044H154.493V97.052H106.964L106.916 97.0444L106.816 97.0369L106.621 97.0225C106.488 97.0112 106.356 97.0263 106.226 97.0044C106.101 96.978 105.972 96.9561 105.843 96.938C105.577 96.9304 105.341 96.8089 105.083 96.7681C104.95 96.753 104.84 96.676 104.714 96.639C104.596 96.5869 104.467 96.5613 104.345 96.5062C104.227 96.4435 104.11 96.3808 103.991 96.3287L103.807 96.2517L103.641 96.1408C103.527 96.0705 103.412 96.0011 103.294 95.9346C103.183 95.8607 103.084 95.7686 102.973 95.6908C102.737 95.5511 102.56 95.3405 102.35 95.1676C102.236 95.0898 102.166 94.9645 102.073 94.8724C101.988 94.7652 101.878 94.6806 101.796 94.5697C101.653 94.3371 101.446 94.1454 101.328 93.8985C101.262 93.7807 101.184 93.666 101.111 93.552C101.059 93.4266 101.004 93.3006 100.941 93.179L100.841 92.9986C100.819 92.9359 100.801 92.8695 100.779 92.803C100.734 92.6739 100.687 92.5486 100.634 92.4233C100.591 92.2942 100.572 92.1575 100.535 92.0247C100.505 91.8918 100.443 91.7665 100.439 91.626C100.417 91.3535 100.332 91.084 100.347 90.8001C100.343 90.6529 100.329 90.5419 100.317 90.3615V3.0127L100.321 3.02007Z" fill="white"/>
<path d="M83.3788 89.0859V71.7217H44.8755C44.8755 81.312 53.6863 89.0859 64.555 89.0859H83.3788Z" fill="black"/>
</g>
<path d="M170.554 82L192.161 33.5216H203.242L224.919 82H213.145L195.416 39.2005H199.848L182.05 82H170.554ZM181.357 71.6118L184.335 63.0934H209.267L212.314 71.6118H181.357ZM229.948 82V33.5216H251.971C257.235 33.5216 261.875 34.5374 265.891 36.5689C269.908 38.5542 273.048 41.3474 275.31 44.9487C277.572 48.5499 278.704 52.8206 278.704 57.7608C278.704 62.6548 277.572 66.9255 275.31 70.573C273.048 74.1742 269.908 76.9906 265.891 79.022C261.875 81.0073 257.235 82 251.971 82H229.948ZM241.168 72.7891H251.417C254.649 72.7891 257.442 72.1889 259.797 70.9885C262.198 69.7419 264.045 67.9874 265.337 65.7251C266.676 63.4628 267.346 60.808 267.346 57.7608C267.346 54.6674 266.676 52.0127 265.337 49.7965C264.045 47.5342 262.198 45.8028 259.797 44.6024C257.442 43.3558 254.649 42.7325 251.417 42.7325H241.168V72.7891ZM300.085 82L279.17 33.5216H291.29L309.573 76.4596H302.44L321 33.5216H332.15L311.166 82H300.085ZM328.203 82L349.81 33.5216H360.891L382.568 82H370.795L353.065 39.2005H357.498L339.699 82H328.203ZM339.007 71.6118L341.985 63.0934H366.916L369.964 71.6118H339.007ZM387.598 82V33.5216H396.878L425.48 68.4261H420.978V33.5216H432.059V82H422.848L394.177 47.0956H398.678V82H387.598ZM466.729 82.8311C462.99 82.8311 459.504 82.2308 456.272 81.0304C453.086 79.7838 450.316 78.0294 447.961 75.7671C445.607 73.5047 443.76 70.85 442.421 67.8028C441.128 64.7556 440.482 61.4082 440.482 57.7608C440.482 54.1134 441.128 50.7661 442.421 47.7189C443.76 44.6717 445.607 42.0169 447.961 39.7546C450.362 37.4923 453.155 35.7609 456.341 34.5605C459.527 33.3139 463.013 32.6906 466.799 32.6906C471 32.6906 474.786 33.4293 478.156 34.9067C481.573 36.338 484.435 38.4618 486.744 41.2782L479.541 47.9266C477.879 46.0337 476.033 44.6255 474.001 43.7021C471.97 42.7325 469.753 42.2478 467.353 42.2478C465.09 42.2478 463.013 42.6171 461.12 43.3558C459.227 44.0945 457.588 45.1565 456.203 46.5415C454.817 47.9266 453.732 49.5657 452.948 51.4586C452.209 53.3516 451.84 55.4523 451.84 57.7608C451.84 60.0693 452.209 62.17 452.948 64.063C453.732 65.956 454.817 67.595 456.203 68.9801C457.588 70.3652 459.227 71.4271 461.12 72.1658C463.013 72.9045 465.09 73.2739 467.353 73.2739C469.753 73.2739 471.97 72.8122 474.001 71.8888C476.033 70.9192 477.879 69.4649 479.541 67.5257L486.744 74.1742C484.435 76.9906 481.573 79.1375 478.156 80.6149C474.786 82.0923 470.977 82.8311 466.729 82.8311ZM504.639 53.0515H527.978V61.7776H504.639V53.0515ZM505.47 72.9969H531.856V82H494.32V33.5216H530.956V42.5248H505.47V72.9969ZM540.783 82V33.5216H552.002V72.8584H576.311V82H540.783ZM576.479 82L598.086 33.5216H609.167L630.844 82H619.07L601.341 39.2005H605.773L587.975 82H576.479ZM587.282 71.6118L590.26 63.0934H615.192L618.239 71.6118H587.282ZM635.873 82V33.5216H645.153L673.756 68.4261H669.254V33.5216H680.335V82H671.124L642.452 47.0956H646.954V82H635.873ZM702.124 53.0515H725.462V61.7776H702.124V53.0515ZM702.955 72.9969H729.341V82H691.805V33.5216H728.44V42.5248H702.955V72.9969Z" fill="black"/>
<defs>
<clipPath id="clip0_223_1659">
<rect width="154.768" height="114" fill="white"/>
</clipPath>
</defs>
</svg>
