<svg width="17" height="16" viewBox="0 0 17 16" fill="none" xmlns="http://www.w3.org/2000/svg">
<g id="ph:seal-check-fill">
<path id="Vector" d="M14.6704 6.42625C14.4348 6.18 14.1911 5.92625 14.0992 5.70312C14.0142 5.49875 14.0092 5.16 14.0042 4.83187C13.9948 4.22187 13.9848 3.53062 13.5042 3.05C13.0236 2.56937 12.3323 2.55937 11.7223 2.55C11.3942 2.545 11.0554 2.54 10.8511 2.455C10.6286 2.36312 10.3742 2.11937 10.1279 1.88375C9.6967 1.46937 9.2067 1 8.5542 1C7.9017 1 7.41232 1.46937 6.98045 1.88375C6.7342 2.11937 6.48045 2.36312 6.25732 2.455C6.0542 2.54 5.7142 2.545 5.38607 2.55C4.77607 2.55937 4.08482 2.56937 3.6042 3.05C3.12357 3.53062 3.1167 4.22187 3.1042 4.83187C3.0992 5.16 3.0942 5.49875 3.0092 5.70312C2.91732 5.92562 2.67357 6.18 2.43795 6.42625C2.02357 6.8575 1.5542 7.3475 1.5542 8C1.5542 8.6525 2.02357 9.14187 2.43795 9.57375C2.67357 9.82 2.91732 10.0737 3.0092 10.2969C3.0942 10.5013 3.0992 10.84 3.1042 11.1681C3.11357 11.7781 3.12357 12.4694 3.6042 12.95C4.08482 13.4306 4.77607 13.4406 5.38607 13.45C5.7142 13.455 6.05295 13.46 6.25732 13.545C6.47982 13.6369 6.7342 13.8806 6.98045 14.1163C7.4117 14.5306 7.9017 15 8.5542 15C9.2067 15 9.69607 14.5306 10.1279 14.1163C10.3742 13.8806 10.6279 13.6369 10.8511 13.545C11.0554 13.46 11.3942 13.455 11.7223 13.45C12.3323 13.4406 13.0236 13.4306 13.5042 12.95C13.9848 12.4694 13.9948 11.7781 14.0042 11.1681C14.0092 10.84 14.0142 10.5013 14.0992 10.2969C14.1911 10.0744 14.4348 9.82 14.6704 9.57375C15.0848 9.1425 15.5542 8.6525 15.5542 8C15.5542 7.3475 15.0848 6.85812 14.6704 6.42625ZM11.4079 6.85375L7.90795 10.3538C7.86151 10.4002 7.80637 10.4371 7.74567 10.4623C7.68497 10.4874 7.61991 10.5004 7.5542 10.5004C7.48849 10.5004 7.42343 10.4874 7.36273 10.4623C7.30203 10.4371 7.24689 10.4002 7.20045 10.3538L5.70045 8.85375C5.60663 8.75993 5.55392 8.63268 5.55392 8.5C5.55392 8.36732 5.60663 8.24007 5.70045 8.14625C5.79427 8.05243 5.92152 7.99972 6.0542 7.99972C6.18688 7.99972 6.31413 8.05243 6.40795 8.14625L7.5542 9.29313L10.7004 6.14625C10.7469 6.09979 10.8021 6.06294 10.8628 6.0378C10.9234 6.01266 10.9885 5.99972 11.0542 5.99972C11.1199 5.99972 11.185 6.01266 11.2456 6.0378C11.3063 6.06294 11.3615 6.09979 11.4079 6.14625C11.4544 6.1927 11.4913 6.24786 11.5164 6.30855C11.5415 6.36925 11.5545 6.4343 11.5545 6.5C11.5545 6.5657 11.5415 6.63075 11.5164 6.69145C11.4913 6.75214 11.4544 6.8073 11.4079 6.85375Z" fill="#0560FD"/>
</g>
</svg>
